<svg xmlns="http://www.w3.org/2000/svg" style="display:none">
  <symbol id="ti-arrow-back" viewBox="0 0 24 24">
      xmlns="http://www.w3.org/2000/svg"
      width="24"
      height="24"
      viewBox="0 0 24 24"
      fill="none"
      stroke="currentColor"
      stroke-width="2"
      stroke-linecap="round"
      stroke-linejoin="round"
    >
      <path d="M9 11l-4 4l4 4m-4 -4h11a4 4 0 0 0 0 -8h-1" />
  </symbol>
  <symbol id="ti-arrow-forward" viewBox="0 0 24 24">
      xmlns="http://www.w3.org/2000/svg"
      width="24"
      height="24"
      viewBox="0 0 24 24"
      fill="none"
      stroke="currentColor"
      stroke-width="2"
      stroke-linecap="round"
      stroke-linejoin="round"
    >
      <path d="M15 11l4 4l-4 4m4 -4h-11a4 4 0 0 1 0 -8h1" />
  </symbol>
  <symbol id="ti-book-2" viewBox="0 0 24 24">
      xmlns="http://www.w3.org/2000/svg"
      width="24"
      height="24"
      viewBox="0 0 24 24"
      fill="none"
      stroke="currentColor"
      stroke-width="2"
      stroke-linecap="round"
      stroke-linejoin="round"
    >
      <path d="M19 4v16h-12a2 2 0 0 1 -2 -2v-12a2 2 0 0 1 2 -2h12" />
      <path d="M19 16h-12a2 2 0 0 0 -2 2" />
      <path d="M9 8h6" />
  </symbol>
  <symbol id="ti-book" viewBox="0 0 24 24">
      xmlns="http://www.w3.org/2000/svg"
      width="24"
      height="24"
      viewBox="0 0 24 24"
      fill="none"
      stroke="currentColor"
      stroke-width="2"
      stroke-linecap="round"
      stroke-linejoin="round"
    >
      <path d="M3 19a9 9 0 0 1 9 0a9 9 0 0 1 9 0" />
      <path d="M3 6a9 9 0 0 1 9 0a9 9 0 0 1 9 0" />
      <path d="M3 6l0 13" />
      <path d="M12 6l0 13" />
      <path d="M21 6l0 13" />
  </symbol>
  <symbol id="ti-checklist" viewBox="0 0 24 24">
      xmlns="http://www.w3.org/2000/svg"
      width="24"
      height="24"
      viewBox="0 0 24 24"
      fill="none"
      stroke="currentColor"
      stroke-width="2"
      stroke-linecap="round"
      stroke-linejoin="round"
    >
      <path d="M9.615 20h-2.615a2 2 0 0 1 -2 -2v-12a2 2 0 0 1 2 -2h8a2 2 0 0 1 2 2v8" />
      <path d="M14 19l2 2l4 -4" />
      <path d="M9 8h4" />
      <path d="M9 12h2" />
  </symbol>
  <symbol id="ti-chevron-left" viewBox="0 0 24 24">
      xmlns="http://www.w3.org/2000/svg"
      width="24"
      height="24"
      viewBox="0 0 24 24"
      fill="none"
      stroke="currentColor"
      stroke-width="2"
      stroke-linecap="round"
      stroke-linejoin="round"
    >
      <path d="M15 6l-6 6l6 6" />
  </symbol>
  <symbol id="ti-chevron-right" viewBox="0 0 24 24">
      xmlns="http://www.w3.org/2000/svg"
      width="24"
      height="24"
      viewBox="0 0 24 24"
      fill="none"
      stroke="currentColor"
      stroke-width="2"
      stroke-linecap="round"
      stroke-linejoin="round"
    >
      <path d="M9 6l6 6l-6 6" />
  </symbol>
  <symbol id="ti-column-insert-right" viewBox="0 0 24 24">
      xmlns="http://www.w3.org/2000/svg"
      width="24"
      height="24"
      viewBox="0 0 24 24"
      fill="none"
      stroke="currentColor"
      stroke-width="2"
      stroke-linecap="round"
      stroke-linejoin="round"
    >
      <path d="M6 4h4a1 1 0 0 1 1 1v14a1 1 0 0 1 -1 1h-4a1 1 0 0 1 -1 -1v-14a1 1 0 0 1 1 -1" />
      <path d="M15 12l4 0" />
      <path d="M17 10l0 4" />
  </symbol>
  <symbol id="ti-cursor-text" viewBox="0 0 24 24">
      xmlns="http://www.w3.org/2000/svg"
      width="24"
      height="24"
      viewBox="0 0 24 24"
      fill="none"
      stroke="currentColor"
      stroke-width="2"
      stroke-linecap="round"
      stroke-linejoin="round"
    >
      <path d="M10 12h4" />
      <path d="M9 4a3 3 0 0 1 3 3v10a3 3 0 0 1 -3 3" />
      <path d="M15 4a3 3 0 0 0 -3 3v10a3 3 0 0 0 3 3" />
  </symbol>
  <symbol id="ti-cursor" viewBox="0 0 24 24">
      xmlns="http://www.w3.org/2000/svg"
      width="24"
      height="24"
      viewBox="0 0 24 24"
      fill="none"
      stroke="currentColor"
      stroke-width="2"
      stroke-linecap="round"
      stroke-linejoin="round"
    >
      <path d="M10 12h4" />
      <path d="M9 4a3 3 0 0 1 3 3v10a3 3 0 0 1 -3 3" />
      <path d="M15 4a3 3 0 0 0 -3 3v10a3 3 0 0 0 3 3" />
  </symbol>
  <symbol id="ti-device-floppy" viewBox="0 0 24 24">
      xmlns="http://www.w3.org/2000/svg"
      width="24"
      height="24"
      viewBox="0 0 24 24"
      fill="none"
      stroke="currentColor"
      stroke-width="2"
      stroke-linecap="round"
      stroke-linejoin="round"
    >
      <path d="M6 4h10l4 4v10a2 2 0 0 1 -2 2h-12a2 2 0 0 1 -2 -2v-12a2 2 0 0 1 2 -2" />
      <path d="M10 14a2 2 0 1 0 4 0a2 2 0 1 0 -4 0" />
      <path d="M14 4l0 4l-6 0l0 -4" />
  </symbol>
  <symbol id="ti-file-export" viewBox="0 0 24 24">
      xmlns="http://www.w3.org/2000/svg"
      width="24"
      height="24"
      viewBox="0 0 24 24"
      fill="none"
      stroke="currentColor"
      stroke-width="2"
      stroke-linecap="round"
      stroke-linejoin="round"
    >
      <path d="M14 3v4a1 1 0 0 0 1 1h4" />
      <path d="M11.5 21h-4.5a2 2 0 0 1 -2 -2v-14a2 2 0 0 1 2 -2h7l5 5v5m-5 6h7m-3 -3l3 3l-3 3" />
  </symbol>
  <symbol id="ti-files" viewBox="0 0 24 24">
      xmlns="http://www.w3.org/2000/svg"
      width="24"
      height="24"
      viewBox="0 0 24 24"
      fill="none"
      stroke="currentColor"
      stroke-width="2"
      stroke-linecap="round"
      stroke-linejoin="round"
    >
      <path d="M15 3v4a1 1 0 0 0 1 1h4" />
      <path d="M18 17h-7a2 2 0 0 1 -2 -2v-10a2 2 0 0 1 2 -2h4l5 5v7a2 2 0 0 1 -2 2" />
      <path d="M16 17v2a2 2 0 0 1 -2 2h-7a2 2 0 0 1 -2 -2v-10a2 2 0 0 1 2 -2h2" />
  </symbol>
  <symbol id="ti-grid-pattern" viewBox="0 0 24 24">
      xmlns="http://www.w3.org/2000/svg"
      width="24"
      height="24"
      viewBox="0 0 24 24"
      fill="none"
      stroke="currentColor"
      stroke-width="2"
      stroke-linecap="round"
      stroke-linejoin="round"
    >
      <path d="M4 6a2 2 0 0 1 2 -2h12a2 2 0 0 1 2 2v12a2 2 0 0 1 -2 2h-12a2 2 0 0 1 -2 -2l0 -12" />
      <path d="M10 8v8" />
      <path d="M14 8v8" />
      <path d="M8 10h8" />
      <path d="M8 14h8" />
  </symbol>
  <symbol id="ti-grip-vertical" viewBox="0 0 24 24">
      xmlns="http://www.w3.org/2000/svg"
      width="24"
      height="24"
      viewBox="0 0 24 24"
      fill="none"
      stroke="currentColor"
      stroke-width="2"
      stroke-linecap="round"
      stroke-linejoin="round"
    >
      <path d="M8 5a1 1 0 1 0 2 0a1 1 0 1 0 -2 0" />
      <path d="M8 12a1 1 0 1 0 2 0a1 1 0 1 0 -2 0" />
      <path d="M8 19a1 1 0 1 0 2 0a1 1 0 1 0 -2 0" />
      <path d="M14 5a1 1 0 1 0 2 0a1 1 0 1 0 -2 0" />
      <path d="M14 12a1 1 0 1 0 2 0a1 1 0 1 0 -2 0" />
      <path d="M14 19a1 1 0 1 0 2 0a1 1 0 1 0 -2 0" />
  </symbol>
  <symbol id="ti-hash" viewBox="0 0 24 24">
      xmlns="http://www.w3.org/2000/svg"
      width="24"
      height="24"
      viewBox="0 0 24 24"
      fill="none"
      stroke="currentColor"
      stroke-width="2"
      stroke-linecap="round"
      stroke-linejoin="round"
    >
      <path d="M5 9l14 0" />
      <path d="M5 15l14 0" />
      <path d="M11 4l-4 16" />
      <path d="M17 4l-4 16" />
  </symbol>
  <symbol id="ti-layout-grid" viewBox="0 0 24 24">
      xmlns="http://www.w3.org/2000/svg"
      width="24"
      height="24"
      viewBox="0 0 24 24"
      fill="none"
      stroke="currentColor"
      stroke-width="2"
      stroke-linecap="round"
      stroke-linejoin="round"
    >
      <path d="M4 5a1 1 0 0 1 1 -1h4a1 1 0 0 1 1 1v4a1 1 0 0 1 -1 1h-4a1 1 0 0 1 -1 -1l0 -4" />
      <path d="M14 5a1 1 0 0 1 1 -1h4a1 1 0 0 1 1 1v4a1 1 0 0 1 -1 1h-4a1 1 0 0 1 -1 -1l0 -4" />
      <path d="M4 15a1 1 0 0 1 1 -1h4a1 1 0 0 1 1 1v4a1 1 0 0 1 -1 1h-4a1 1 0 0 1 -1 -1l0 -4" />
      <path d="M14 15a1 1 0 0 1 1 -1h4a1 1 0 0 1 1 1v4a1 1 0 0 1 -1 1h-4a1 1 0 0 1 -1 -1l0 -4" />
  </symbol>
  <symbol id="ti-link" viewBox="0 0 24 24">
      xmlns="http://www.w3.org/2000/svg"
      width="24"
      height="24"
      viewBox="0 0 24 24"
      fill="none"
      stroke="currentColor"
      stroke-width="2"
      stroke-linecap="round"
      stroke-linejoin="round"
    >
      <path d="M9 15l6 -6" />
      <path d="M11 6l.463 -.536a5 5 0 0 1 7.071 7.072l-.534 .464" />
      <path d="M13 18l-.397 .534a5.068 5.068 0 0 1 -7.127 0a4.972 4.972 0 0 1 0 -7.071l.524 -.463" />
  </symbol>
  <symbol id="ti-list-numbers" viewBox="0 0 24 24">
      xmlns="http://www.w3.org/2000/svg"
      width="24"
      height="24"
      viewBox="0 0 24 24"
      fill="none"
      stroke="currentColor"
      stroke-width="2"
      stroke-linecap="round"
      stroke-linejoin="round"
    >
      <path d="M11 6h9" />
      <path d="M11 12h9" />
      <path d="M12 18h8" />
      <path d="M4 16a2 2 0 1 1 4 0c0 .591 -.5 1 -1 1.5l-3 2.5h4" />
      <path d="M6 10v-6l-2 2" />
  </symbol>
  <symbol id="ti-moon" viewBox="0 0 24 24">
      xmlns="http://www.w3.org/2000/svg"
      width="24"
      height="24"
      viewBox="0 0 24 24"
      fill="none"
      stroke="currentColor"
      stroke-width="2"
      stroke-linecap="round"
      stroke-linejoin="round"
    >
      <path d="M12 3c.132 0 .263 0 .393 0a7.5 7.5 0 0 0 7.92 12.446a9 9 0 1 1 -8.313 -12.454l0 .008" />
  </symbol>
  <symbol id="ti-photo" viewBox="0 0 24 24">
      xmlns="http://www.w3.org/2000/svg"
      width="24"
      height="24"
      viewBox="0 0 24 24"
      fill="none"
      stroke="currentColor"
      stroke-width="2"
      stroke-linecap="round"
      stroke-linejoin="round"
    >
      <path d="M15 8h.01" />
      <path d="M3 6a3 3 0 0 1 3 -3h12a3 3 0 0 1 3 3v12a3 3 0 0 1 -3 3h-12a3 3 0 0 1 -3 -3v-12" />
      <path d="M3 16l5 -5c.928 -.893 2.072 -.893 3 0l5 5" />
      <path d="M14 14l1 -1c.928 -.893 2.072 -.893 3 0l3 3" />
  </symbol>
  <symbol id="ti-plus" viewBox="0 0 24 24">
      xmlns="http://www.w3.org/2000/svg"
      width="24"
      height="24"
      viewBox="0 0 24 24"
      fill="none"
      stroke="currentColor"
      stroke-width="2"
      stroke-linecap="round"
      stroke-linejoin="round"
    >
      <path d="M12 5l0 14" />
      <path d="M5 12l14 0" />
  </symbol>
  <symbol id="ti-printer" viewBox="0 0 24 24">
      xmlns="http://www.w3.org/2000/svg"
      width="24"
      height="24"
      viewBox="0 0 24 24"
      fill="none"
      stroke="currentColor"
      stroke-width="2"
      stroke-linecap="round"
      stroke-linejoin="round"
    >
      <path d="M17 17h2a2 2 0 0 0 2 -2v-4a2 2 0 0 0 -2 -2h-14a2 2 0 0 0 -2 2v4a2 2 0 0 0 2 2h2" />
      <path d="M17 9v-4a2 2 0 0 0 -2 -2h-6a2 2 0 0 0 -2 2v4" />
      <path d="M7 15a2 2 0 0 1 2 -2h6a2 2 0 0 1 2 2v4a2 2 0 0 1 -2 2h-6a2 2 0 0 1 -2 -2l0 -4" />
  </symbol>
  <symbol id="ti-settings" viewBox="0 0 24 24">
      xmlns="http://www.w3.org/2000/svg"
      width="24"
      height="24"
      viewBox="0 0 24 24"
      fill="none"
      stroke="currentColor"
      stroke-width="2"
      stroke-linecap="round"
      stroke-linejoin="round"
    >
      <path d="M10.325 4.317c.426 -1.756 2.924 -1.756 3.35 0a1.724 1.724 0 0 0 2.573 1.066c1.543 -.94 3.31 .826 2.37 2.37a1.724 1.724 0 0 0 1.065 2.572c1.756 .426 1.756 2.924 0 3.35a1.724 1.724 0 0 0 -1.066 2.573c.94 1.543 -.826 3.31 -2.37 2.37a1.724 1.724 0 0 0 -2.572 1.065c-.426 1.756 -2.924 1.756 -3.35 0a1.724 1.724 0 0 0 -2.573 -1.066c-1.543 .94 -3.31 -.826 -2.37 -2.37a1.724 1.724 0 0 0 -1.065 -2.572c-1.756 -.426 -1.756 -2.924 0 -3.35a1.724 1.724 0 0 0 1.066 -2.573c-.94 -1.543 .826 -3.31 2.37 -2.37c1 .608 2.296 .07 2.572 -1.065" />
      <path d="M9 12a3 3 0 1 0 6 0a3 3 0 0 0 -6 0" />
  </symbol>
  <symbol id="ti-sun" viewBox="0 0 24 24">
      xmlns="http://www.w3.org/2000/svg"
      width="24"
      height="24"
      viewBox="0 0 24 24"
      fill="none"
      stroke="currentColor"
      stroke-width="2"
      stroke-linecap="round"
      stroke-linejoin="round"
    >
      <path d="M8 12a4 4 0 1 0 8 0a4 4 0 1 0 -8 0" />
      <path d="M3 12h1m8 -9v1m8 8h1m-9 8v1m-6.4 -15.4l.7 .7m12.1 -.7l-.7 .7m0 11.4l.7 .7m-12.1 -.7l-.7 .7" />
  </symbol>
  <symbol id="ti-text-size" viewBox="0 0 24 24">
      xmlns="http://www.w3.org/2000/svg"
      width="24"
      height="24"
      viewBox="0 0 24 24"
      fill="none"
      stroke="currentColor"
      stroke-width="2"
      stroke-linecap="round"
      stroke-linejoin="round"
    >
      <path d="M3 7v-2h13v2" />
      <path d="M10 5v14" />
      <path d="M12 19h-4" />
      <path d="M15 13v-1h6v1" />
      <path d="M18 12v7" />
      <path d="M17 19h2" />
  </symbol>
  <symbol id="ti-trash" viewBox="0 0 24 24">
      xmlns="http://www.w3.org/2000/svg"
      width="24"
      height="24"
      viewBox="0 0 24 24"
      fill="none"
      stroke="currentColor"
      stroke-width="2"
      stroke-linecap="round"
      stroke-linejoin="round"
    >
      <path d="M4 7l16 0" />
      <path d="M10 11l0 6" />
      <path d="M14 11l0 6" />
      <path d="M5 7l1 12a2 2 0 0 0 2 2h8a2 2 0 0 0 2 -2l1 -12" />
      <path d="M9 7v-3a1 1 0 0 1 1 -1h4a1 1 0 0 1 1 1v3" />
  </symbol>
  <symbol id="ti-typography" viewBox="0 0 24 24">
      xmlns="http://www.w3.org/2000/svg"
      width="24"
      height="24"
      viewBox="0 0 24 24"
      fill="none"
      stroke="currentColor"
      stroke-width="2"
      stroke-linecap="round"
      stroke-linejoin="round"
    >
      <path d="M4 20l3 0" />
      <path d="M14 20l7 0" />
      <path d="M6.9 15l6.9 0" />
      <path d="M10.2 6.3l5.8 13.7" />
      <path d="M5 20l6 -16l2 0l7 16" />
  </symbol>
  <symbol id="ti-upload" viewBox="0 0 24 24">
      xmlns="http://www.w3.org/2000/svg"
      width="24"
      height="24"
      viewBox="0 0 24 24"
      fill="none"
      stroke="currentColor"
      stroke-width="2"
      stroke-linecap="round"
      stroke-linejoin="round"
    >
      <path d="M4 17v2a2 2 0 0 0 2 2h12a2 2 0 0 0 2 -2v-2" />
      <path d="M7 9l5 -5l5 5" />
      <path d="M12 4l0 12" />
  </symbol>
  <symbol id="ti-x" viewBox="0 0 24 24">
      xmlns="http://www.w3.org/2000/svg"
      width="24"
      height="24"
      viewBox="0 0 24 24"
      fill="none"
      stroke="currentColor"
      stroke-width="2"
      stroke-linecap="round"
      stroke-linejoin="round"
    >
      <path d="M18 6l-12 12" />
      <path d="M6 6l12 12" />
  </symbol>
  <symbol id="ti-zoom-in" viewBox="0 0 24 24">
      xmlns="http://www.w3.org/2000/svg"
      width="24"
      height="24"
      viewBox="0 0 24 24"
      fill="none"
      stroke="currentColor"
      stroke-width="2"
      stroke-linecap="round"
      stroke-linejoin="round"
    >
      <path d="M3 10a7 7 0 1 0 14 0a7 7 0 1 0 -14 0" />
      <path d="M7 10l6 0" />
      <path d="M10 7l0 6" />
      <path d="M21 21l-6 -6" />
  </symbol>
  <symbol id="ti-zoom-out" viewBox="0 0 24 24">
      xmlns="http://www.w3.org/2000/svg"
      width="24"
      height="24"
      viewBox="0 0 24 24"
      fill="none"
      stroke="currentColor"
      stroke-width="2"
      stroke-linecap="round"
      stroke-linejoin="round"
    >
      <path d="M3 10a7 7 0 1 0 14 0a7 7 0 1 0 -14 0" />
      <path d="M7 10l6 0" />
      <path d="M21 21l-6 -6" />
  </symbol>
</svg>
